<?xml version="1.0" encoding="iso-8859-1"?>
<!-- Generator: Adobe Illustrator 19.0.0, SVG Export Plug-In . SVG Version: 6.00 Build 0)  -->
<svg version="1.1" id="Capa_1" xmlns="http://www.w3.org/2000/svg" xmlns:xlink="http://www.w3.org/1999/xlink" x="0px" y="0px"
	 viewBox="0 0 16 16" style="enable-background:new 0 0 16 16;" xml:space="preserve">
<g>
	<path d="M15,6h-1.343c-0.071-0.199-0.152-0.394-0.244-0.585l0.951-0.951c0.391-0.391,0.391-1.023,0-1.414L12.95,1.636
		c-0.391-0.391-1.023-0.391-1.414,0l-0.951,0.951C10.394,2.495,10.199,2.414,10,2.343V1c0-0.552-0.448-1-1-1H7C6.448,0,6,0.448,6,1
		v1.343C5.801,2.414,5.606,2.495,5.415,2.587L4.464,1.636c-0.391-0.391-1.023-0.391-1.414,0L1.636,3.05
		c-0.391,0.391-0.391,1.023,0,1.414l0.951,0.951C2.495,5.606,2.414,5.801,2.343,6H1C0.448,6,0,6.448,0,7v2c0,0.552,0.448,1,1,1
		h1.343c0.071,0.199,0.152,0.394,0.244,0.584l-0.951,0.951c-0.391,0.391-0.391,1.023,0,1.414l1.414,1.414
		c0.391,0.391,1.023,0.391,1.414,0l0.951-0.951C5.606,13.505,5.801,13.586,6,13.657V15c0,0.552,0.448,1,1,1h2c0.552,0,1-0.448,1-1
		v-1.343c0.199-0.071,0.394-0.152,0.584-0.244l0.951,0.951c0.391,0.391,1.023,0.391,1.414,0l1.414-1.414
		c0.391-0.391,0.391-1.023,0-1.414l-0.951-0.951c0.092-0.191,0.173-0.386,0.244-0.584H15c0.552,0,1-0.448,1-1V7
		C16,6.448,15.552,6,15,6z M6,8c0-1.103,0.897-2,2-2s2,0.897,2,2s-0.897,2-2,2S6,9.103,6,8z"/>
</g>
<g>
</g>
<g>
</g>
<g>
</g>
<g>
</g>
<g>
</g>
<g>
</g>
<g>
</g>
<g>
</g>
<g>
</g>
<g>
</g>
<g>
</g>
<g>
</g>
<g>
</g>
<g>
</g>
<g>
</g>
</svg>
